@startuml
'https://plantuml.com/class-diagram
'依赖关系

class PersonServiceBean{
    personDao: PersonDao
    save(person: Person): void
    getIdCard(personId: Integer): IDCard
    modify(): void
}
class IDCard
class Person
class PersonDao
class Department

PersonServiceBean --> IDCard
PersonServiceBean --> Person
PersonServiceBean --> PersonDao
PersonServiceBean --> Department

@enduml